<?xml version="1.0" standalone="no"?>
<!DOCTYPE svg PUBLIC "-//W3C//DTD SVG 20010904//EN"
 "http://www.w3.org/TR/2001/REC-SVG-20010904/DTD/svg10.dtd">
<svg version="1.0" xmlns="http://www.w3.org/2000/svg"
 width="350.000000pt" height="350.000000pt" viewBox="0 0 350.000000 350.000000"
 preserveAspectRatio="xMidYMid meet">
<metadata>
Created by potrace 1.14, written by Peter Selinger 2001-2017
</metadata>
<g transform="translate(0.000000,350.000000) scale(0.100000,-0.100000)"
fill="#000000" stroke="none">
<path d="M1250 2317 c-3 -3 -23 -7 -45 -10 -141 -17 -310 -149 -388 -303 -71
-141 -80 -327 -22 -480 83 -221 299 -368 530 -363 97 2 159 18 245 61 111 56
242 204 224 252 -4 9 -20 24 -36 32 -32 17 -33 16 -121 -88 -123 -145 -342
-183 -522 -92 -66 33 -159 128 -194 198 -25 51 -54 163 -47 181 3 9 132 12
486 12 544 0 516 -4 512 76 -1 23 -4 49 -5 57 -46 214 -196 386 -389 445 -51
16 -218 32 -228 22z m151 -122 c96 -15 214 -95 278 -189 26 -38 71 -144 71
-166 0 -6 -163 -10 -436 -10 l-436 0 6 28 c4 15 22 59 41 99 56 114 174 209
287 232 92 19 108 19 189 6z"/>
<path d="M2266 2301 c-15 -16 -16 -55 -16 -379 1 -382 3 -403 52 -510 26 -59
141 -171 208 -205 103 -50 252 -61 359 -25 164 55 297 213 318 379 6 48 9 678
4 721 -1 4 -8 14 -17 22 -19 20 -54 21 -79 2 -19 -13 -20 -31 -21 -368 0 -194
-4 -369 -8 -388 -11 -44 -48 -118 -74 -146 -32 -34 -108 -94 -119 -94 -5 0
-25 -7 -43 -17 -22 -11 -59 -16 -110 -16 -65 0 -88 5 -142 30 -101 47 -181
143 -203 243 -5 19 -9 194 -9 388 -1 338 -2 354 -20 368 -27 19 -60 18 -80 -5z"/>
<path d="M274 1385 c-82 -42 -85 -168 -4 -210 97 -50 202 39 167 142 -22 66
-101 99 -163 68z"/>
</g>
</svg>
